<svg xmlns="http://www.w3.org/2000/svg" xmlns:xlink="http://www.w3.org/1999/xlink" preserveAspectRatio="xMidYMid" width="672" height="294" viewBox="0 0 672 294">
  <defs>
    <style>
      .cls-1 {
        fill: #999;
      }

      .cls-1, .cls-2 {
        fill-rule: evenodd;
      }

      .cls-2 {
        fill: #000;
      }
    </style>
  </defs>
  <path d="M656.559,76.739 L637.369,76.739 L637.369,200.665 L594.156,201.837 L594.156,76.739 L574.967,76.739 L574.967,204.327 C574.967,214.874 580.240,220.147 590.787,220.147 C596.939,220.147 604.703,219.561 614.078,218.390 C621.791,217.415 629.555,216.389 637.369,215.313 L637.369,219.268 L656.559,219.268 L656.559,76.739 Z" class="cls-1"/>
  <path d="M94.336,178.852 C84.178,201.802 79.102,216.206 79.102,222.065 C79.102,226.167 81.395,228.218 85.986,228.218 C89.502,228.218 91.795,225.727 92.871,220.747 C93.457,218.502 93.896,216.792 94.189,215.620 L94.775,213.276 C97.314,204.977 101.514,193.892 107.373,180.024 L108.984,176.216 C120.605,177.095 129.932,178.658 136.963,180.903 C138.817,181.588 140.332,181.929 141.504,181.929 C144.823,181.929 146.484,179.438 146.484,174.458 C146.484,170.748 143.651,168.356 137.988,167.280 C132.616,166.207 124.658,165.229 114.111,164.351 C118.700,153.902 124.120,142.721 130.371,130.806 C137.890,131.002 146.825,131.343 157.178,131.831 C159.521,132.124 161.327,132.270 162.598,132.270 C164.257,132.270 165.527,131.783 166.406,130.806 C167.773,129.245 168.457,127.436 168.457,125.386 C168.457,120.895 164.209,118.647 155.713,118.647 C152.197,118.647 147.510,118.746 141.650,118.940 C139.989,119.039 138.329,119.087 136.670,119.087 C145.068,103.852 151.758,92.477 156.738,84.956 C162.108,77.243 164.989,71.823 165.381,68.696 C165.868,65.377 164.550,63.716 161.426,63.716 C159.764,63.716 158.105,64.352 156.445,65.620 C153.905,67.476 149.707,73.482 143.848,83.638 C132.715,103.170 126.171,114.743 124.219,118.354 C117.870,118.258 109.227,118.258 98.291,118.354 L91.113,118.354 L86.572,118.354 C92.821,105.368 98.193,94.917 102.686,87.007 C108.252,77.144 110.742,70.992 110.156,68.550 C109.765,66.597 108.446,65.620 106.201,65.620 C104.736,65.620 103.320,66.206 101.953,67.378 C99.511,69.429 95.750,75.485 90.674,85.542 C89.598,87.886 85.693,95.407 78.955,108.101 C77.685,110.543 76.318,113.278 74.854,116.304 L73.682,118.354 C58.935,118.258 50.732,117.819 49.072,117.036 C44.286,115.377 41.112,114.546 39.551,114.546 C37.695,114.546 36.131,115.182 34.863,116.450 C32.909,118.501 31.835,121.042 31.641,124.067 C31.348,129.927 37.354,132.856 49.658,132.856 C53.856,132.856 57.957,132.760 61.963,132.563 C63.524,132.563 64.941,132.515 66.211,132.417 C60.546,143.257 55.273,153.756 50.391,163.911 L48.047,163.911 L44.385,163.911 L38.525,163.911 C30.517,163.815 25.097,163.717 22.266,163.618 C20.409,163.618 19.238,163.618 18.750,163.618 C16.406,163.618 14.697,164.058 13.623,164.936 C11.181,167.184 9.961,169.674 9.961,172.407 C9.961,176.413 16.113,178.413 28.418,178.413 C30.370,178.413 34.373,178.317 40.430,178.120 L43.945,178.120 L42.773,180.757 C32.520,203.512 27.393,218.062 27.393,224.409 C27.393,228.316 29.638,230.268 34.131,230.268 C37.255,230.268 39.793,229.049 41.748,226.606 C43.407,224.556 44.092,222.310 43.799,219.868 L43.506,217.231 C43.407,216.549 43.309,215.963 43.213,215.474 C44.481,210.200 48.486,199.459 55.225,183.247 L56.689,179.731 L57.568,177.534 C70.262,176.948 82.910,176.461 95.508,176.069 L94.336,178.852 ZM76.172,163.911 L68.115,163.911 L63.428,163.911 L64.893,160.688 L67.090,156.001 C74.316,141.451 78.319,133.442 79.102,131.977 L83.789,131.831 C98.241,131.245 108.154,130.856 113.525,130.659 L117.773,130.513 L116.309,133.589 C110.742,144.136 105.711,154.195 101.221,163.765 C94.970,163.765 86.620,163.815 76.172,163.911 L76.172,163.911 Z" class="cls-1"/>
  <path d="M524.034,273.321 L524.034,219.268 L491.954,219.268 C483.261,219.268 476.036,216.364 470.275,210.553 C464.511,204.744 461.632,197.442 461.632,188.653 L461.632,105.304 C461.632,96.906 464.170,89.900 469.249,84.283 C474.326,78.669 481.016,75.860 489.318,75.860 C491.563,75.860 503.135,77.472 524.034,80.694 L524.034,76.739 L543.370,76.739 L543.370,273.321 L524.034,273.321 ZM524.034,94.464 C508.603,93.489 499.620,92.999 497.081,92.999 C486.338,92.999 480.968,98.469 480.968,109.405 L480.968,185.724 C480.968,196.662 486.338,202.130 497.081,202.130 L524.034,202.130 L524.034,94.464 ZM414.025,219.268 L365.099,219.268 C354.161,219.268 348.693,213.752 348.693,202.716 L348.693,93.292 C348.693,82.258 354.161,76.739 365.099,76.739 L414.025,76.739 C425.059,76.739 430.577,82.258 430.577,93.292 L430.577,202.716 C430.577,213.752 425.059,219.268 414.025,219.268 ZM411.095,93.878 L368.175,93.878 L368.175,202.130 L411.095,202.130 L411.095,93.878 ZM300.646,219.268 L254.357,219.268 C243.418,219.268 237.950,213.752 237.950,202.716 L237.950,93.292 C237.950,82.258 243.418,76.739 254.357,76.739 L300.646,76.739 C311.582,76.739 317.052,82.258 317.052,93.292 L317.052,121.710 L297.863,121.710 L297.863,93.878 L257.433,93.878 L257.433,202.130 L297.863,202.130 L297.863,170.343 L317.052,170.343 L317.052,202.716 C317.052,213.752 311.582,219.268 300.646,219.268 ZM185.363,20.929 L205.138,20.929 L205.138,45.538 L185.363,45.538 L185.363,20.929 ZM204.845,219.268 L185.656,219.268 L185.656,76.739 L204.845,76.739 L204.845,219.268 Z" class="cls-2"/>
</svg>
